<svg width="20" height="20" viewBox="0 0 20 20" fill="none" xmlns="http://www.w3.org/2000/svg">
<path d="M7.01611 18.4253C7.09238 18.508 7.13293 18.6174 7.12896 18.7298C7.12499 18.8422 7.07682 18.9485 6.99492 19.0256L6.07404 19.8867C5.99181 19.9631 5.88262 20.0038 5.77045 19.9997C5.65828 19.9957 5.55231 19.9473 5.47581 19.8651L0.112917 14.0855C0.036707 14.0027 -0.00377188 13.8933 0.000276947 13.7808C0.00432578 13.6684 0.0525751 13.5622 0.13454 13.4851L1.05669 12.6253C1.09738 12.5874 1.14514 12.5579 1.19723 12.5385C1.24932 12.5191 1.30473 12.5101 1.36029 12.5121C1.41584 12.5141 1.47046 12.5271 1.52102 12.5502C1.57157 12.5733 1.61707 12.6062 1.65492 12.6469L7.01611 18.4253ZM13.8591 7.55029C13.9353 7.63302 13.9758 7.74249 13.9717 7.85491C13.9677 7.96732 13.9194 8.0736 13.8375 8.15064L8.04172 13.5648C7.95949 13.6412 7.85029 13.6819 7.73813 13.6778C7.62596 13.6737 7.51998 13.6253 7.44348 13.5432L6.06005 12.0504C5.98384 11.9676 5.94336 11.8582 5.94741 11.7458C5.95145 11.6333 5.9997 11.5271 6.08167 11.45L11.8762 6.03584C11.9168 5.99797 11.9645 5.96849 12.0166 5.94908C12.0687 5.92967 12.124 5.92072 12.1796 5.92272C12.2351 5.92473 12.2897 5.93767 12.3402 5.96079C12.3907 5.98391 12.4362 6.01676 12.474 6.05746L13.8591 7.55029ZM8.98803 16.5823C9.1466 16.7531 9.13685 17.0232 8.96641 17.1826L8.04426 18.0433C8.00357 18.0812 7.95581 18.1107 7.90372 18.1301C7.85163 18.1495 7.79622 18.1585 7.74066 18.1564C7.68511 18.1544 7.63049 18.1415 7.57993 18.1184C7.52938 18.0952 7.48388 18.0624 7.44603 18.0217L2.08611 12.242C2.00984 12.1593 1.96929 12.0499 1.97326 11.9375C1.97723 11.8251 2.0254 11.7188 2.10731 11.6417L3.02776 10.7814C3.10999 10.705 3.21918 10.6644 3.33135 10.6684C3.44352 10.6725 3.54949 10.7209 3.62599 10.803L8.98803 16.5823ZM17.9183 7.75761C17.9944 7.8404 18.0348 7.94991 18.0307 8.06232C18.0266 8.17474 17.9782 8.28098 17.8962 8.35796L16.9745 9.21864C16.8922 9.29511 16.783 9.33583 16.6708 9.33186C16.5585 9.32788 16.4525 9.27954 16.3758 9.19744L11.0151 3.41905C10.9387 3.33642 10.8981 3.22696 10.902 3.11451C10.906 3.00207 10.9543 2.89574 11.0363 2.8187L11.9605 1.95591C12.0012 1.91804 12.0489 1.88856 12.101 1.86915C12.153 1.84974 12.2084 1.84078 12.2639 1.84279C12.3194 1.8448 12.374 1.85774 12.4245 1.88086C12.4751 1.90397 12.5205 1.93683 12.5583 1.97753L17.9183 7.75761ZM19.8872 5.91755C19.9633 6.00041 20.0038 6.10993 19.9997 6.22238C19.9957 6.33483 19.9475 6.44116 19.8656 6.51833L18.9456 7.37858C18.9049 7.41647 18.8572 7.44598 18.8052 7.46543C18.7532 7.48487 18.6978 7.49387 18.6423 7.4919C18.5867 7.48993 18.5322 7.47704 18.4816 7.45395C18.4311 7.43087 18.3856 7.39805 18.3478 7.35738L12.9878 1.57645C12.9116 1.49365 12.8712 1.38416 12.8751 1.27171C12.8791 1.15926 12.9272 1.0529 13.009 0.975675L13.9299 0.11373C13.9705 0.075797 14.0181 0.0462472 14.0701 0.0267761C14.1222 0.00730502 14.1775 -0.0017042 14.233 0.000265379C14.2885 0.00223496 14.3431 0.0151446 14.3936 0.0382535C14.4441 0.0613624 14.4895 0.0942158 14.5273 0.134929L19.8872 5.91755Z" fill="#303030"/>
</svg>
